<svg xmlns="http://www.w3.org/2000/svg" version="1.1" xmlns:xlink="http://www.w3.org/1999/xlink" xmlns:svgjs="http://svgjs.com/svgjs" width="512" height="512" x="0" y="0" viewBox="0 0 24 24" style="enable-background:new 0 0 512 512" xml:space="preserve" class=""><g><path d="m19.759 11.35-6-7a1 1 0 0 0-1.518 1.3L17.683 12l-5.442 6.35a1 1 0 0 0 1.518 1.3l6-7a.998.998 0 0 0 0-1.3z" fill="#000000" data-original="#000000"></path><path d="M5.76 4.35a1 1 0 0 0-1.52 1.3L9.684 12l-5.442 6.35a1 1 0 0 0 1.518 1.3l6-7a1 1 0 0 0 0-1.3z" fill="#000000" data-original="#000000"></path></g></svg>
