<svg class="" height="512" style="enable-background:new 0 0 512 512" version="1.1" viewBox="0 0 24 24" width="512" x="0"
     xml:space="preserve" xmlns="http://www.w3.org/2000/svg" y="0"><g><path d="M12 2C6.486 2 2 6.486 2 12s4.486 10 10 10 10-4.486 10-10S17.514 2 12 2zm0 18c-4.411 0-8-3.589-8-8s3.589-8 8-8 8 3.589 8 8-3.589 8-8 8z" data-original="#000000" fill="#000000"></path><path
    d="M12 7a1 1 0 0 0-1 1v5a1 1 0 1 0 2 0V8a1 1 0 0 0-1-1zM12 15c-.26 0-.52.11-.71.29-.181.19-.29.45-.29.71s.109.52.29.71c.38.37 1.04.37 1.42 0 .18-.19.29-.45.29-.71s-.11-.52-.29-.71c-.19-.18-.45-.29-.71-.29z"
    data-original="#000000" fill="#000000"></path></g></svg>
