<svg class="" height="512" style="enable-background:new 0 0 512 512" version="1.1" viewBox="0 0 512.038 512.038" width="512" x="0"
     xml:space="preserve" xmlns="http://www.w3.org/2000/svg" y="0"><g><path class="" d="M434.748 169.294c-12.854-11.28-25.867-21.428-38.95-30.383L508.035 27.095 486.861 5.842 369.616 122.648a300.653 300.653 0 0 0-13.441-7.089c-33.549-16.582-67.068-24.99-99.628-24.99-32.552 0-66.119 8.405-99.767 24.982-26.42 13.016-52.966 31.088-78.9 53.715-43.838 38.248-70.675 76.074-71.796 77.665L0 255.569l6.084 8.638c1.121 1.591 27.958 39.417 71.796 77.665 13.329 11.629 26.82 22.045 40.371 31.2L5.96 484.942l21.174 21.253 117.434-116.994a303.495 303.495 0 0 0 12.213 6.386c33.648 16.577 67.214 24.982 99.767 24.982 32.56 0 66.079-8.408 99.628-24.99 26.344-13.021 52.779-31.1 78.572-53.735 43.597-38.26 70.191-76.1 71.302-77.692l5.988-8.583-5.988-8.583c-1.111-1.592-27.706-39.431-71.302-77.692zM98.11 319.708c-29.224-25.417-50.779-51.15-60.963-64.134 24.373-31.03 113.932-135.005 219.4-135.005 32.53 0 63.426 10.091 90.801 24.264l-27.286 27.184c-17.649-13.449-39.663-21.448-63.515-21.448-57.897 0-105 47.103-105 105 0 23.71 7.903 45.606 21.209 63.202l-32.767 32.645c-15.763-10.216-29.891-21.282-41.879-31.708zm233.437-64.139c0 41.355-33.645 75-75 75-15.082 0-29.126-4.49-40.899-12.182l103.87-103.481c7.597 11.725 12.029 25.682 12.029 40.663zm-150 0c0-41.355 33.645-75 75-75a74.574 74.574 0 0 1 41.993 12.889l-104.26 103.87a74.57 74.57 0 0 1-12.733-41.759zm232.904 64.171c-36.938 32.312-94.315 70.829-157.903 70.829-32.019 0-62.526-9.768-89.675-23.589l27.186-27.083c17.473 12.981 39.099 20.672 62.489 20.672 57.897 0 105-47.103 105-105 0-23.249-7.6-44.754-20.44-62.171l32.984-32.86c15.171 9.977 28.772 20.723 40.36 30.86 29.087 25.445 50.483 51.207 60.562 64.171-10.08 12.965-31.476 38.726-60.563 64.171z" data-original="#000000" fill="#000000"></path></g></svg>
