<svg height="512" style="enable-background:new 0 0 512 512" version="1.1" viewBox="0 0 24 24" width="512" x="0"
     xml:space="preserve" xmlns="http://www.w3.org/2000/svg" y="0"><g><path d="M12 2C6.486 2 2 6.486 2 12s4.486 10 10 10 10-4.486 10-10S17.514 2 12 2zm0 18c-4.411 0-8-3.589-8-8s3.589-8 8-8 8 3.589 8 8-3.589 8-8 8z" data-original="#000000" fill="#000000"></path><path
    d="M15.707 8.293a.999.999 0 0 0-1.414 0L12 10.586 9.707 8.293a.999.999 0 1 0-1.414 1.414L10.586 12l-2.293 2.293a.999.999 0 1 0 1.414 1.414L12 13.414l2.293 2.293a.997.997 0 0 0 1.414 0 .999.999 0 0 0 0-1.414L13.414 12l2.293-2.293a.999.999 0 0 0 0-1.414z"
    data-original="#000000" fill="#000000"></path></g></svg>
