<svg height="512" style="enable-background:new 0 0 512 512" version="1.1" viewBox="0 0 512 512" width="512"
     x="0"
     xml:space="preserve" xmlns="http://www.w3.org/2000/svg" y="0"><g><path d="m459.36 100.64-96-96A16.001 16.001 0 0 0 352 0H96C69.49 0 48 21.49 48 48v416c0 26.51 21.49 48 48 48h320c26.51 0 48-21.49 48-48V112a15.999 15.999 0 0 0-4.64-11.36zM432 464c0 8.837-7.163 16-16 16H96c-8.837 0-16-7.163-16-16V48c0-8.837 7.163-16 16-16h240v64c0 17.673 14.327 32 32 32h64v336z" data-original="#000000" fill="#000000"></path><path
    d="M368 384h32v32h-32zM112 224h288v32H112zM112 304h288v32H112zM112 384h224v32H112z" data-original="#000000"
    fill="#000000"></path></g></svg>
