<svg class="" height="512" style="enable-background:new 0 0 512 512" version="1.1" viewBox="0 0 24 24" width="512" x="0"
     xml:space="preserve" xmlns="http://www.w3.org/2000/svg" y="0"><g><path d="m19.759 11.35-6-7a1 1 0 0 0-1.518 1.3L17.683 12l-5.442 6.35a1 1 0 0 0 1.518 1.3l6-7a.998.998 0 0 0 0-1.3z" data-original="#000000" fill="#000000"></path><path
    d="M5.76 4.35a1 1 0 0 0-1.52 1.3L9.684 12l-5.442 6.35a1 1 0 0 0 1.518 1.3l6-7a1 1 0 0 0 0-1.3z" data-original="#000000" fill="#000000"></path></g></svg>
