<svg class="" height="512" style="enable-background:new 0 0 512 512" version="1.1" viewBox="0 0 24 24" width="512" x="0"
     xml:space="preserve" xmlns="http://www.w3.org/2000/svg" y="0"><g><g fill="#000"><path class="" d="M12.75 11a.75.75 0 0 0-1.5 0v6a.75.75 0 0 0 1.5 0z" data-original="#000000" fill="#000000"></path><path
    class="" clip-rule="evenodd"
    d="M12 1.25C6.063 1.25 1.25 6.063 1.25 12S6.063 22.75 12 22.75 22.75 17.937 22.75 12 17.937 1.25 12 1.25zM2.75 12a9.25 9.25 0 1 1 18.5 0 9.25 9.25 0 0 1-18.5 0z" data-original="#000000" fill="#000000" fill-rule="evenodd"></path><path class="" d="M13 8a1 1 0 1 1-2 0 1 1 0 0 1 2 0z" data-original="#000000" fill="#000000"></path></g></g></svg>
