<svg height="0" style="display:none;" width="0" xmlns="http://www.w3.org/2000/svg">
    <symbol id="icons-core-angle-double-left" viewBox="0 0 24 24">
        <g>
            <path
                d="M12.707 18.293a1 1 0 1 1-1.414 1.414l-7-7a1 1 0 0 1 0-1.414l7-7a1 1 0 1 1 1.414 1.414L6.414 12zM13.414 12l6.293-6.293a1 1 0 1 0-1.414-1.414l-7 7a1 1 0 0 0 0 1.414l7 7a1 1 0 0 0 1.414-1.414z"
                data-original="#000000" fill="#000000"></path>
        </g>
    </symbol>
    <symbol id="icons-core-angle-double-right" viewBox="0 0 24 24">
        <g>
            <path d="m19.759 11.35-6-7a1 1 0 0 0-1.518 1.3L17.683 12l-5.442 6.35a1 1 0 0 0 1.518 1.3l6-7a.998.998 0 0 0 0-1.3z" data-original="#000000" fill="#000000"></path>
            <path d="M5.76 4.35a1 1 0 0 0-1.52 1.3L9.684 12l-5.442 6.35a1 1 0 0 0 1.518 1.3l6-7a1 1 0 0 0 0-1.3z" data-original="#000000" fill="#000000"></path>
        </g>
    </symbol>
    <symbol id="icons-core-angle-down" viewBox="0 0 24 24">
        <g>
            <path class="" d="m12 14.586 6.293-6.293a1 1 0 0 1 1.414 1.414l-7 7a.999.999 0 0 1-1.414 0l-7-7a1 1 0 0 1 1.414-1.414z" data-original="#000000" fill="#000000"></path>
        </g>
    </symbol>
    <symbol id="icons-core-angle-left" viewBox="0 0 24 24">
        <g>
            <path clip-rule="evenodd" d="M15.707 3.293a1 1 0 0 0-1.414 0l-8 8a1 1 0 0 0 0 1.414l8 8a1 1 0 0 0 1.414-1.414L8.414 12l7.293-7.293a1 1 0 0 0 0-1.414z" data-original="#000000" fill="#000000"
                  fill-rule="evenodd"></path>
        </g>
    </symbol>
    <symbol id="icons-core-angle-right" viewBox="0 0 24 24">
        <g>
            <path d="M9 20a1 1 0 0 1-.707-1.707L14.586 12 8.293 5.707a1 1 0 0 1 1.414-1.414l7 7a1 1 0 0 1 0 1.414l-7 7A1 1 0 0 1 9 20z" data-original="#000000" fill="#000000"></path>
        </g>
    </symbol>
    <symbol id="icons-core-angle-up" viewBox="0 0 24 24">
        <g>
            <path clip-rule="evenodd" d="M3.293 16.707a1 1 0 0 1 0-1.414L10.586 8a2 2 0 0 1 2.828 0l7.293 7.293a1 1 0 0 1-1.414 1.414L12 9.414l-7.293 7.293a1 1 0 0 1-1.414 0z" data-original="#000000"
                  fill="#000000" fill-rule="evenodd"></path>
        </g>
    </symbol>
    <symbol id="icons-core-check" viewBox="0 0 511.985 511.985">
        <g>
            <path
                d="M500.088 83.681c-15.841-15.862-41.564-15.852-57.426 0L184.205 342.148 69.332 227.276c-15.862-15.862-41.574-15.862-57.436 0-15.862 15.862-15.862 41.574 0 57.436l143.585 143.585c7.926 7.926 18.319 11.899 28.713 11.899 10.394 0 20.797-3.963 28.723-11.899l287.171-287.181c15.862-15.851 15.862-41.574 0-57.435z"
                data-original="#000000" fill="#000000"></path>
        </g>
    </symbol>
    <symbol id="icons-core-close-circle" viewBox="0 0 24 24">
        <g>
            <path d="M12 2C6.486 2 2 6.486 2 12s4.486 10 10 10 10-4.486 10-10S17.514 2 12 2zm0 18c-4.411 0-8-3.589-8-8s3.589-8 8-8 8 3.589 8 8-3.589 8-8 8z" data-original="#000000"
                  fill="#000000"></path>
            <path
                d="M15.707 8.293a.999.999 0 0 0-1.414 0L12 10.586 9.707 8.293a.999.999 0 1 0-1.414 1.414L10.586 12l-2.293 2.293a.999.999 0 1 0 1.414 1.414L12 13.414l2.293 2.293a.997.997 0 0 0 1.414 0 .999.999 0 0 0 0-1.414L13.414 12l2.293-2.293a.999.999 0 0 0 0-1.414z"
                data-original="#000000" fill="#000000"></path>
        </g>
    </symbol>
    <symbol id="icons-core-close" viewBox="0 0 24 24">
        <g>
            <path class="" clip-rule="evenodd"
                  d="M5 17.586a1 1 0 1 0 1.415 1.415L12 13.414 17.586 19A1 1 0 0 0 19 17.586L13.414 12 19 6.414A1 1 0 0 0 17.585 5L12 10.586 6.414 5A1 1 0 0 0 5 6.414L10.586 12z" data-original="#000000"
                  fill="#000000" fill-rule="evenodd"></path>
        </g>
    </symbol>
    <symbol id="icons-core-exclamation-circle" viewBox="0 0 24 24">
        <g>
            <path d="M12 2C6.486 2 2 6.486 2 12s4.486 10 10 10 10-4.486 10-10S17.514 2 12 2zm0 18c-4.411 0-8-3.589-8-8s3.589-8 8-8 8 3.589 8 8-3.589 8-8 8z" data-original="#000000"
                  fill="#000000"></path>
            <path
                d="M12 7a1 1 0 0 0-1 1v5a1 1 0 1 0 2 0V8a1 1 0 0 0-1-1zM12 15c-.26 0-.52.11-.71.29-.181.19-.29.45-.29.71s.109.52.29.71c.38.37 1.04.37 1.42 0 .18-.19.29-.45.29-.71s-.11-.52-.29-.71c-.19-.18-.45-.29-.71-.29z"
                data-original="#000000" fill="#000000"></path>
        </g>
    </symbol>
    <symbol id="icons-core-eye-slash" viewBox="0 0 512.038 512.038">
        <g>
            <path
                class=""
                d="M434.748 169.294c-12.854-11.28-25.867-21.428-38.95-30.383L508.035 27.095 486.861 5.842 369.616 122.648a300.653 300.653 0 0 0-13.441-7.089c-33.549-16.582-67.068-24.99-99.628-24.99-32.552 0-66.119 8.405-99.767 24.982-26.42 13.016-52.966 31.088-78.9 53.715-43.838 38.248-70.675 76.074-71.796 77.665L0 255.569l6.084 8.638c1.121 1.591 27.958 39.417 71.796 77.665 13.329 11.629 26.82 22.045 40.371 31.2L5.96 484.942l21.174 21.253 117.434-116.994a303.495 303.495 0 0 0 12.213 6.386c33.648 16.577 67.214 24.982 99.767 24.982 32.56 0 66.079-8.408 99.628-24.99 26.344-13.021 52.779-31.1 78.572-53.735 43.597-38.26 70.191-76.1 71.302-77.692l5.988-8.583-5.988-8.583c-1.111-1.592-27.706-39.431-71.302-77.692zM98.11 319.708c-29.224-25.417-50.779-51.15-60.963-64.134 24.373-31.03 113.932-135.005 219.4-135.005 32.53 0 63.426 10.091 90.801 24.264l-27.286 27.184c-17.649-13.449-39.663-21.448-63.515-21.448-57.897 0-105 47.103-105 105 0 23.71 7.903 45.606 21.209 63.202l-32.767 32.645c-15.763-10.216-29.891-21.282-41.879-31.708zm233.437-64.139c0 41.355-33.645 75-75 75-15.082 0-29.126-4.49-40.899-12.182l103.87-103.481c7.597 11.725 12.029 25.682 12.029 40.663zm-150 0c0-41.355 33.645-75 75-75a74.574 74.574 0 0 1 41.993 12.889l-104.26 103.87a74.57 74.57 0 0 1-12.733-41.759zm232.904 64.171c-36.938 32.312-94.315 70.829-157.903 70.829-32.019 0-62.526-9.768-89.675-23.589l27.186-27.083c17.473 12.981 39.099 20.672 62.489 20.672 57.897 0 105-47.103 105-105 0-23.249-7.6-44.754-20.44-62.171l32.984-32.86c15.171 9.977 28.772 20.723 40.36 30.86 29.087 25.445 50.483 51.207 60.562 64.171-10.08 12.965-31.476 38.726-60.563 64.171z" data-original="#000000" fill="#000000"></path>
        </g>
    </symbol>
    <symbol id="icons-core-eye" viewBox="0 0 511.999 511.999">
        <g>
            <path
                class=""
                d="M508.745 246.041c-4.574-6.257-113.557-153.206-252.748-153.206S7.818 239.784 3.249 246.035a16.896 16.896 0 0 0 0 19.923c4.569 6.257 113.557 153.206 252.748 153.206s248.174-146.95 252.748-153.201a16.875 16.875 0 0 0 0-19.922zM255.997 385.406c-102.529 0-191.33-97.533-217.617-129.418 26.253-31.913 114.868-129.395 217.617-129.395 102.524 0 191.319 97.516 217.617 129.418-26.253 31.912-114.868 129.395-217.617 129.395z" data-original="#000000" fill="#000000"></path>
            <path
                class=""
                d="M255.997 154.725c-55.842 0-101.275 45.433-101.275 101.275s45.433 101.275 101.275 101.275S357.272 311.842 357.272 256s-45.433-101.275-101.275-101.275zm0 168.791c-37.23 0-67.516-30.287-67.516-67.516s30.287-67.516 67.516-67.516 67.516 30.287 67.516 67.516-30.286 67.516-67.516 67.516z" data-original="#000000" fill="#000000"></path>
        </g>
    </symbol>
    <symbol id="icons-core-file" viewBox="0 0 512 512">
        <g>
            <path
                d="m459.36 100.64-96-96A16.001 16.001 0 0 0 352 0H96C69.49 0 48 21.49 48 48v416c0 26.51 21.49 48 48 48h320c26.51 0 48-21.49 48-48V112a15.999 15.999 0 0 0-4.64-11.36zM432 464c0 8.837-7.163 16-16 16H96c-8.837 0-16-7.163-16-16V48c0-8.837 7.163-16 16-16h240v64c0 17.673 14.327 32 32 32h64v336z"
                data-original="#000000" fill="#000000"></path>
            <path d="M368 384h32v32h-32zM112 224h288v32H112zM112 304h288v32H112zM112 384h224v32H112z" data-original="#000000" fill="#000000"></path>
        </g>
    </symbol>
    <symbol id="icons-core-filter" viewBox="0 0 393 393.99">
        <g>
            <path
                class=""
                d="M368.313 0H17.05A16.5 16.5 0 0 0 2.344 8.96a16.732 16.732 0 0 0 1.3 17.415l128.688 181.281c.043.063.09.121.133.184a36.769 36.769 0 0 1 7.219 21.816v147.797a16.429 16.429 0 0 0 16.433 16.535c2.227 0 4.426-.445 6.48-1.297l72.313-27.574c6.48-1.976 10.781-8.09 10.781-15.453V229.656a36.774 36.774 0 0 1 7.215-21.816c.043-.063.09-.121.133-.184L381.723 26.367a16.717 16.717 0 0 0 1.3-17.406A16.502 16.502 0 0 0 368.313 0zM236.78 195.992a56.931 56.931 0 0 0-11.097 33.664v117.578l-66 25.164V229.656a56.909 56.909 0 0 0-11.102-33.664L23.648 20h338.07zm0 0" data-original="#000000" fill="#000000"></path>
        </g>
    </symbol>
    <symbol id="icons-core-info-circle" viewBox="0 0 24 24">
        <g>
            <g fill="#000">
                <path class="" d="M12.75 11a.75.75 0 0 0-1.5 0v6a.75.75 0 0 0 1.5 0z" data-original="#000000" fill="#000000"></path>
                <path class=""
                      clip-rule="evenodd"
                      d="M12 1.25C6.063 1.25 1.25 6.063 1.25 12S6.063 22.75 12 22.75 22.75 17.937 22.75 12 17.937 1.25 12 1.25zM2.75 12a9.25 9.25 0 1 1 18.5 0 9.25 9.25 0 0 1-18.5 0z" data-original="#000000" fill="#000000" fill-rule="evenodd"></path>
                <path class="" d="M13 8a1 1 0 1 1-2 0 1 1 0 0 1 2 0z" data-original="#000000" fill="#000000"></path>
            </g>
        </g>
    </symbol>
    <symbol id="icons-core-link" viewBox="0 0 512.092 512.092">
        <g>
            <path
                class=""
                d="M312.453 199.601a116.167 116.167 0 0 0-20.053-16.128 119.472 119.472 0 0 0-64.427-18.859 118.952 118.952 0 0 0-84.48 34.987L34.949 308.23a119.466 119.466 0 0 0-34.91 84.318c-.042 65.98 53.41 119.501 119.39 119.543a118.7 118.7 0 0 0 84.395-34.816l89.6-89.6a8.534 8.534 0 0 0-6.059-14.592h-3.413a143.626 143.626 0 0 1-54.613-10.581 8.533 8.533 0 0 0-9.301 1.877l-64.427 64.512c-20.006 20.006-52.442 20.006-72.448 0-20.006-20.006-20.006-52.442 0-72.448l108.971-108.885c19.99-19.965 52.373-19.965 72.363 0 13.472 12.679 34.486 12.679 47.957 0a34.134 34.134 0 0 0 9.899-21.675 34.137 34.137 0 0 0-9.9-26.282z" data-original="#000000" fill="#000000"></path>
            <path
                class=""
                d="M477.061 34.993c-46.657-46.657-122.303-46.657-168.96 0l-89.515 89.429a8.533 8.533 0 0 0-1.792 9.387 8.532 8.532 0 0 0 8.021 5.205h3.157a143.357 143.357 0 0 1 54.528 10.667 8.533 8.533 0 0 0 9.301-1.877l64.256-64.171c20.006-20.006 52.442-20.006 72.448 0 20.006 20.006 20.006 52.442 0 72.448l-80.043 79.957-.683.768-27.989 27.819c-19.99 19.965-52.373 19.965-72.363 0-13.472-12.679-34.486-12.679-47.957 0a34.139 34.139 0 0 0-9.899 21.845 34.137 34.137 0 0 0 9.899 26.283 118.447 118.447 0 0 0 34.133 23.893c1.792.853 3.584 1.536 5.376 2.304 1.792.768 3.669 1.365 5.461 2.048a67.799 67.799 0 0 0 5.461 1.792l5.035 1.365c3.413.853 6.827 1.536 10.325 2.133 4.214.626 8.458 1.025 12.715 1.195H284.461l5.12-.597c1.877-.085 3.84-.512 6.059-.512h2.901l5.888-.853 2.731-.512 4.949-1.024h.939a119.456 119.456 0 0 0 55.381-31.403l108.629-108.629c46.66-46.657 46.66-122.303.003-168.96z" data-original="#000000" fill="#000000"></path>
        </g>
    </symbol>
    <symbol id="icons-core-loader" viewBox="0 0 330 330">
        <g>
            <path
                d="M97.5 165c0-8.284-6.716-15-15-15h-60c-8.284 0-15 6.716-15 15s6.716 15 15 15h60c8.284 0 15-6.716 15-15zM307.5 150h-30c-8.284 0-15 6.716-15 15s6.716 15 15 15h30c8.284 0 15-6.716 15-15s-6.716-15-15-15zM172.5 90c8.284 0 15-6.716 15-15V15c0-8.284-6.716-15-15-15s-15 6.716-15 15v60c0 8.284 6.716 15 15 15zM172.501 240c-8.284 0-15 6.716-15 15v60c0 8.284 6.716 15 15 15 8.284 0 15-6.716 15-15v-60c0-8.284-6.716-15-15-15zM77.04 48.327c-5.856-5.858-15.354-5.857-21.213 0-5.858 5.858-5.858 15.355 0 21.213l42.427 42.428a14.954 14.954 0 0 0 10.606 4.394c3.838 0 7.678-1.465 10.606-4.393 5.858-5.858 5.858-15.355 0-21.213L77.04 48.327zM246.746 218.034c-5.857-5.857-15.355-5.857-21.213 0-5.858 5.858-5.857 15.355 0 21.213l42.428 42.426a14.953 14.953 0 0 0 10.607 4.393c3.839 0 7.678-1.465 10.606-4.393 5.858-5.858 5.858-15.355 0-21.213l-42.428-42.426zM98.254 218.034 55.828 260.46c-5.858 5.858-5.858 15.355 0 21.213a14.953 14.953 0 0 0 10.607 4.393 14.95 14.95 0 0 0 10.606-4.393l42.426-42.426c5.858-5.858 5.858-15.355 0-21.213-5.858-5.858-15.356-5.858-21.213 0z"
                data-original="#000000" fill="#000000"></path>
        </g>
    </symbol>
    <symbol id="icons-core-loading" viewBox="0 0 24 24">
        <g>
            <path d="M12 22C6.49 22 2 17.51 2 12c0-1.87.52-3.69 1.5-5.27a1.003 1.003 0 0 1 1.7 1.06A8.008 8.008 0 0 0 4 12c0 4.41 3.59 8 8 8s8-3.59 8-8-3.59-8-8-8c-.55 0-1-.45-1-1s.45-1 1-1c5.51 0 10 4.49 10 10s-4.49 10-10 10z"
                  data-original="#000000"
                  fill="#000000"></path>
        </g>
    </symbol>
    <symbol id="icons-core-maximize" viewBox="0 0 128 128">
        <g>
            <path
                class=""
                d="M116 16v24a4 4 0 0 1-8 0V25.656L82.828 50.828C82.047 51.609 81.023 52 80 52s-2.047-.391-2.828-1.172a3.997 3.997 0 0 1 0-5.656L102.344 20H88a4 4 0 0 1 0-8h24a4 4 0 0 1 4 4zM50.828 45.172 25.656 20H40a4 4 0 0 0 0-8H16a4 4 0 0 0-4 4v24a4 4 0 0 0 8 0V25.656l25.172 25.172C45.953 51.609 46.977 52 48 52s2.047-.391 2.828-1.172a3.997 3.997 0 0 0 0-5.656zM112 84a4 4 0 0 0-4 4v14.344L82.828 77.172c-1.563-1.563-4.094-1.563-5.656 0s-1.563 4.094 0 5.656L102.344 108H88a4 4 0 0 0 0 8h24a4 4 0 0 0 4-4V88a4 4 0 0 0-4-4zm-61.172-6.828a3.997 3.997 0 0 0-5.656 0L20 102.344V88a4 4 0 0 0-8 0v24a4 4 0 0 0 4 4h24a4 4 0 0 0 0-8H25.656l25.172-25.172a3.997 3.997 0 0 0 0-5.656z" data-original="#000000" fill="#000000"></path>
        </g>
    </symbol>
    <symbol id="icons-core-minimize" viewBox="0 0 121.805 121.804">
        <g>
            <path d="M7.308 68.211h107.188a7.309 7.309 0 0 0 7.309-7.31 7.308 7.308 0 0 0-7.309-7.309H7.308a7.31 7.31 0 0 0 0 14.619z" data-original="#000000" fill="#000000"></path>
        </g>
    </symbol>
    <symbol id="icons-core-minus" viewBox="0 0 121.805 121.804">
        <g>
            <path d="M7.308 68.211h107.188a7.309 7.309 0 0 0 7.309-7.31 7.308 7.308 0 0 0-7.309-7.309H7.308a7.31 7.31 0 0 0 0 14.619z" data-original="#000000" fill="#000000"></path>
        </g>
    </symbol>
    <symbol id="icons-core-search" viewBox="0 0 118.783 118.783">
        <g>
            <path
                d="M115.97 101.597 88.661 74.286a47.75 47.75 0 0 0 7.333-25.488c0-26.509-21.49-47.996-47.998-47.996S0 22.289 0 48.798c0 26.51 21.487 47.995 47.996 47.995a47.776 47.776 0 0 0 27.414-8.605l26.984 26.986a9.574 9.574 0 0 0 6.788 2.806 9.58 9.58 0 0 0 6.791-2.806 9.602 9.602 0 0 0-.003-13.577zM47.996 81.243c-17.917 0-32.443-14.525-32.443-32.443s14.526-32.444 32.443-32.444c17.918 0 32.443 14.526 32.443 32.444S65.914 81.243 47.996 81.243z"
                data-original="#000000" fill="#000000"></path>
        </g>
    </symbol>
    <symbol id="icons-core-star-fill" viewBox="0 0 49.94 49.94">
        <g>
            <path
                class=""
                d="M48.856 22.73a3.56 3.56 0 0 0 .906-3.671 3.56 3.56 0 0 0-2.892-2.438l-12.092-1.757a1.58 1.58 0 0 1-1.19-.865L28.182 3.043a3.56 3.56 0 0 0-3.212-1.996 3.56 3.56 0 0 0-3.211 1.996L16.352 14c-.23.467-.676.79-1.191.865L3.069 16.622A3.56 3.56 0 0 0 .177 19.06a3.56 3.56 0 0 0 .906 3.671l8.749 8.528c.373.364.544.888.456 1.4L8.224 44.701a3.506 3.506 0 0 0 .781 2.904c1.066 1.267 2.927 1.653 4.415.871l10.814-5.686a1.619 1.619 0 0 1 1.472 0l10.815 5.686a3.544 3.544 0 0 0 1.666.417c1.057 0 2.059-.47 2.748-1.288a3.505 3.505 0 0 0 .781-2.904l-2.065-12.042a1.582 1.582 0 0 1 .456-1.4l8.749-8.529z" data-original="#000000" fill="#000000"></path>
        </g>
    </symbol>
    <symbol id="icons-core-star" viewBox="0 0 32 32">
        <g>
            <path
                d="M23.479 29.691a2.325 2.325 0 0 1-1.089-.27l-6.233-3.276a.333.333 0 0 0-.314 0l-6.232 3.276a2.338 2.338 0 0 1-3.393-2.465l1.19-6.939a.337.337 0 0 0-.1-.3L2.27 14.8a2.338 2.338 0 0 1 1.3-3.989L10.533 9.8a.337.337 0 0 0 .254-.185L13.9 3.3a2.337 2.337 0 0 1 4.193 0l3.115 6.313a.34.34 0 0 0 .254.185l6.969 1.012a2.339 2.339 0 0 1 1.3 3.989l-5.043 4.914a.339.339 0 0 0-.1.3l1.19 6.939a2.341 2.341 0 0 1-2.3 2.735zM16 24.105a2.325 2.325 0 0 1 1.088.27l6.232 3.275a.321.321 0 0 0 .356-.025.325.325 0 0 0 .135-.331l-1.191-6.94a2.343 2.343 0 0 1 .672-2.069l5.043-4.915a.338.338 0 0 0-.188-.576l-6.968-1.013a2.335 2.335 0 0 1-1.76-1.279L16.3 4.188a.338.338 0 0 0-.606 0L12.581 10.5a2.335 2.335 0 0 1-1.761 1.279l-6.967 1.015a.337.337 0 0 0-.187.576l5.042 4.915a2.343 2.343 0 0 1 .672 2.069l-1.191 6.94a.338.338 0 0 0 .492.356l6.231-3.276A2.335 2.335 0 0 1 16 24.105z"
                data-original="#000000" fill="#000000"></path>
        </g>
    </symbol>
    <symbol id="icons-core-warning" viewBox="0 0 512 512">
        <g>
            <path
                class=""
                d="M505.403 406.394 295.389 58.102c-8.274-13.721-23.367-22.245-39.39-22.245s-31.116 8.524-39.391 22.246L6.595 406.394c-8.551 14.182-8.804 31.95-.661 46.37 8.145 14.42 23.491 23.378 40.051 23.378h420.028c16.56 0 31.907-8.958 40.052-23.379 8.143-14.421 7.89-32.189-.662-46.369zm-28.364 29.978a12.684 12.684 0 0 1-11.026 6.436H45.985a12.68 12.68 0 0 1-11.025-6.435 12.683 12.683 0 0 1 .181-12.765L245.156 75.316A12.732 12.732 0 0 1 256 69.192c4.41 0 8.565 2.347 10.843 6.124l210.013 348.292a12.677 12.677 0 0 1 .183 12.764z" data-original="#000000" fill="#000000"></path>
            <path
                class=""
                d="M256.154 173.005c-12.68 0-22.576 6.804-22.576 18.866 0 36.802 4.329 89.686 4.329 126.489.001 9.587 8.352 13.607 18.248 13.607 7.422 0 17.937-4.02 17.937-13.607 0-36.802 4.329-89.686 4.329-126.489 0-12.061-10.205-18.866-22.267-18.866zM256.465 353.306c-13.607 0-23.814 10.824-23.814 23.814 0 12.68 10.206 23.814 23.814 23.814 12.68 0 23.505-11.134 23.505-23.814 0-12.99-10.826-23.814-23.505-23.814z" data-original="#000000" fill="#000000"></path>
        </g>
    </symbol>
</svg>
