<svg xmlns="http://www.w3.org/2000/svg" version="1.1" xmlns:xlink="http://www.w3.org/1999/xlink" xmlns:svgjs="http://svgjs.com/svgjs" width="512" height="512" x="0" y="0" viewBox="0 0 24 24" style="enable-background:new 0 0 512 512" xml:space="preserve" class=""><g><path d="M12.707 18.293a1 1 0 1 1-1.414 1.414l-7-7a1 1 0 0 1 0-1.414l7-7a1 1 0 1 1 1.414 1.414L6.414 12zM13.414 12l6.293-6.293a1 1 0 1 0-1.414-1.414l-7 7a1 1 0 0 0 0 1.414l7 7a1 1 0 0 0 1.414-1.414z" fill="#000000" data-original="#000000"></path></g></svg>
