<svg xmlns="http://www.w3.org/2000/svg" version="1.1" xmlns:xlink="http://www.w3.org/1999/xlink" xmlns:svgjs="http://svgjs.com/svgjs" width="512" height="512" x="0" y="0" viewBox="0 0 128 128" style="enable-background:new 0 0 512 512" xml:space="preserve" class=""><g><path d="M116 16v24a4 4 0 0 1-8 0V25.656L82.828 50.828C82.047 51.609 81.023 52 80 52s-2.047-.391-2.828-1.172a3.997 3.997 0 0 1 0-5.656L102.344 20H88a4 4 0 0 1 0-8h24a4 4 0 0 1 4 4zM50.828 45.172 25.656 20H40a4 4 0 0 0 0-8H16a4 4 0 0 0-4 4v24a4 4 0 0 0 8 0V25.656l25.172 25.172C45.953 51.609 46.977 52 48 52s2.047-.391 2.828-1.172a3.997 3.997 0 0 0 0-5.656zM112 84a4 4 0 0 0-4 4v14.344L82.828 77.172c-1.563-1.563-4.094-1.563-5.656 0s-1.563 4.094 0 5.656L102.344 108H88a4 4 0 0 0 0 8h24a4 4 0 0 0 4-4V88a4 4 0 0 0-4-4zm-61.172-6.828a3.997 3.997 0 0 0-5.656 0L20 102.344V88a4 4 0 0 0-8 0v24a4 4 0 0 0 4 4h24a4 4 0 0 0 0-8H25.656l25.172-25.172a3.997 3.997 0 0 0 0-5.656z" fill="#000000" data-original="#000000" class=""></path></g></svg>
